<svg width="16" height="16" viewBox="0 0 16 16" fill="none" xmlns="http://www.w3.org/2000/svg">
<path d="M13.7977 2.20017C13.3274 1.73241 12.691 1.46983 12.0277 1.46983C11.3644 1.46983 10.728 1.73241 10.2577 2.20017L3.3577 9.11017L1.5977 12.7302C1.50724 12.9208 1.46611 13.1311 1.47809 13.3418C1.49006 13.5525 1.55476 13.7568 1.66624 13.936C1.77773 14.1151 1.93242 14.2634 2.11614 14.3673C2.29985 14.4711 2.5067 14.5271 2.7177 14.5302C2.90864 14.5301 3.09694 14.4856 3.2677 14.4002L6.8877 12.6402L12.8877 6.64017L13.7177 5.82017L13.7777 5.76017C14.2518 5.29039 14.5201 4.65172 14.5239 3.98431C14.5276 3.31689 14.2665 2.67525 13.7977 2.20017ZM12.9077 3.09017C13.0241 3.20628 13.1165 3.34422 13.1795 3.49609C13.2425 3.64795 13.2749 3.81075 13.2749 3.97517C13.2749 4.13959 13.2425 4.30239 13.1795 4.45425C13.1165 4.60612 13.0241 4.74406 12.9077 4.86017L11.1377 3.09017C11.365 2.8592 11.6737 2.72639 11.9977 2.72017C12.1667 2.71541 12.3349 2.74584 12.4916 2.80953C12.6482 2.87323 12.7899 2.9688 12.9077 3.09017ZM2.7277 13.2702L4.2877 10.0002L5.9977 11.7102L2.7277 13.2702ZM6.8877 10.8702L5.1277 9.11017L10.2577 4.00017L11.9977 5.74017L6.8877 10.8702Z" fill="#2C3357"/>
</svg>
