<svg width="17" height="16" viewBox="0 0 17 16" fill="none" xmlns="http://www.w3.org/2000/svg">
<path fill-rule="evenodd" clip-rule="evenodd" d="M12.8062 2.75H4.39374L4.80348 14.75L12.3898 14.75L12.8062 2.75ZM4.39374 1.5C3.68667 1.5 3.12034 2.08599 3.14447 2.79266L3.55421 14.7927C3.5772 15.466 4.12973 16 4.80348 16H12.3898C13.0633 16 13.6157 15.4664 13.6391 14.7933L14.0555 2.79335C14.08 2.08642 13.5136 1.5 12.8062 1.5H4.39374Z" fill="#2C3357"/>
<path d="M4.25961 4H12.7899V5.25H4.25961V4Z" fill="#2C3357"/>
<path d="M6.84721 7L6.84721 12H5.59721L5.59721 7H6.84721Z" fill="#2C3357"/>
<path d="M9.22221 7L9.22221 12H7.97221L7.97221 7H9.22221Z" fill="#2C3357"/>
<path d="M11.5972 7V12H10.3472V7H11.5972Z" fill="#2C3357"/>
<path d="M8.59721 0C9.28671 0 9.84721 0.525178 9.84721 1.17045C9.84721 1.81573 9.28671 2.34091 8.59721 2.34091C7.90771 2.34091 7.34721 1.81573 7.34721 1.17045C7.34721 0.525178 7.90771 0 8.59721 0Z" fill="#2C3357"/>
<path d="M7.34721 1.20312H9.84721V2.5H7.34721V1.20312Z" fill="#2C3357"/>
</svg>
